<?xml version="1.0" encoding="utf-8"?>
<!-- Generator: Adobe Illustrator 18.0.0, SVG Export Plug-In . SVG Version: 6.00 Build 0)  -->
<!DOCTYPE svg PUBLIC "-//W3C//DTD SVG 1.1//EN" "http://www.w3.org/Graphics/SVG/1.1/DTD/svg11.dtd">
<svg version="1.1" id="nslogo" xmlns="http://www.w3.org/2000/svg" xmlns:xlink="http://www.w3.org/1999/xlink" x="0px" y="0px"
	 viewBox="0 141.7 566.9 283.5" enable-background="new 0 141.7 566.9 283.5" xml:space="preserve">
<g>
	<path fill="none" d="M311.5,328.2c0.1,0,0.2,0,0.3,0h75.4l30.8-29.2h-51.2l2.1,4.9L311.5,328.2z"/>
	<path fill="none" d="M362.9,306l-48,20.4l0,0l-4,1.7c0.2,0,0.5,0,0.7,0l57.3-24.3l-2.1-4.9h-0.2C367.1,301.8,365.6,304.8,362.9,306
		z"/>
	<path fill="none" d="M261.7,249c-0.1-0.6,0.2-1.2,0.8-1.3c2.6-0.4,5.3-0.6,8-0.7l-2.8-2.9l-54.9,23.3l0.3,0.7H225
		C234.9,258,247.8,251.3,261.7,249z"/>
	<path fill="none" d="M267.6,244.1l-2-2.1c-3.1-1.5-6.1-3.1-9.2-3.1H181l-29.2,29.2H213l-0.3-0.7L267.6,244.1z"/>
	<path fill="none" d="M325.4,226.1c0.8,0,1.6,0.5,1.9,1.3l1.9,4.5l1.9-0.8c3.2-1.3,6.9,0.1,8.2,3.3l14.3,33.8h0.1l-21.8-51.4
		l-36.3,15.5l0.3,0.3C304.9,228.2,315,226,325.4,226.1z"/>
	<path fill="#2A3982" d="M366.2,297.8c0.2,0.4,0.3,0.8,0.4,1.2h0.2l-13.1-30.8h-0.1L366.2,297.8z"/>
	<polygon fill="#273B80" points="310.8,328.1 314.9,326.4 314.9,326.4 	"/>
	<polygon fill="#273B80" points="307.4,329.6 310.8,328.1 310.8,328.1 	"/>
	<path fill="#E7B324" d="M366.5,299c-0.1-0.4-0.2-0.8-0.4-1.2l-12.6-29.6l-14.3-33.8c-1.3-3.2-5-4.7-8.2-3.3l-1.9,0.8l15.4,36.3
		l10.2,24.1l0,0l2.1,4.9c0.3,0.6,0.2,1.2-0.1,1.8c-0.2,0.4-0.5,0.8-1,1l-44.2,18.8l-10.8,4.5l1.7,1.8c2.8,1.4,5.5,2.8,8.3,3l4-1.7
		l48-20.4C365.6,304.8,367.1,301.8,366.5,299z"/>
	<path fill="#84828F" d="M311.6,318.8l44.2-18.8c0.5-0.2,0.8-0.6,1-1h-18.9c-1.7,0-3.4-0.1-5.2-0.4c-10.9,3.6-20.7,10-28.5,18.7
		c-2.9-0.1-5.8,0-8.7,0.3l3.8,4.1l11.4-4.9L311.6,318.8z"/>
	<path fill="#84828F" d="M352.9,295.2c-6.9,0.1-13.7,1.2-20.1,3.4c1.7,0.2,3.4,0.4,5.2,0.4h18.9c0.3-0.5,0.4-1.2,0.1-1.8l-2.1-4.9
		C355.4,293.7,354.4,295.2,352.9,295.2z"/>
	<polygon fill="#84828F" points="310.8,316.8 299.4,321.7 300.9,323.3 311.6,318.8 	"/>
	<path fill="#E5E5E8" d="M274.9,248.2L274.9,248.2c0,0.1,0,0.1,0.1,0.2L274.9,248.2z"/>
	<g>
		<path fill="#E5E5E8" d="M267.3,262.5c-0.2,0.1-0.3,0.1-0.5,0.1c-7.4,1.2-14.5,3.7-21,7.4c-1,0.6-2.3,0.2-2.8-0.8
			c-0.1-0.2-0.2-0.4-0.2-0.6c-0.2-0.9,0.2-1.8,1-2.2c6.8-3.8,14.2-6.4,21.9-7.8l-4-9.4c0-0.1,0-0.1,0-0.2
			c-13.9,2.3-26.8,8.9-36.7,19.1h6.8c3.1,0,6.3,0.4,9.3,1.2c3,0.7,6,1.8,8.8,3.2c3.5-1.8,7.2-3.2,11-4.4c1.1-0.3,2.3,0.3,2.6,1.4
			c0.3,1.1-0.3,2.3-1.4,2.6c-2.7,0.8-5.3,1.8-7.8,2.9c1.3,0.9,2.6,1.8,3.8,2.8c4.5-1.8,9.2-3.1,14-4L267.3,262.5z"/>
		<path fill="#E5E5E8" d="M273.9,277.9c-0.2,0.1-0.3,0.1-0.5,0.1c-4,0.7-8,1.7-11.8,3.1l3.1,3.3c3.5-1.2,7.1-2.2,10.8-2.8
			L273.9,277.9z"/>
		<path fill="#E5E5E8" d="M354.9,292.3l-0.4-0.9l-9.9-23.2l-15.4-36.3l-1.9-4.5c-0.3-0.8-1.1-1.3-1.9-1.3
			c-10.3-0.2-20.5,2.1-29.6,6.5c-7.8,3.7-15,9-20.9,15.6l0.1,0.2l0,0l2.4,5.6l0.2,0.4l10.1,23.6l0,0c0.3,0.8-0.3,1.6-1.2,1.4l-5.5-1
			l-2.8,4.2c0.1,0.2,0.2,0.4,0.3,0.7c0.2,1.2-0.6,2.2-1.7,2.4c-3,0.5-6,1.2-8.8,2.1l9.5,10.2c3.1-0.8,6.4-1.3,9.6-1.7
			c1.2-0.1,2.2,0.7,2.3,1.9c0.1,0.9-0.4,1.8-1.2,2.1c-0.2,0.1-0.4,0.1-0.6,0.2c-2.3,0.2-4.5,0.6-6.8,1l3.2,3.5
			c2.1-0.4,4.3-0.7,6.4-0.9c1.2-0.1,2.2,0.7,2.3,1.9c0.1,0.9-0.4,1.8-1.2,2.1c-0.2,0.1-0.4,0.1-0.6,0.2c-1.2,0.1-2.3,0.3-3.4,0.4
			l4.1,4.4l4.3,4.6c2.9-0.3,5.8-0.4,8.7-0.3c7.8-8.7,17.7-15.1,28.5-18.7c6.4-2.1,13.2-3.3,20.1-3.4
			C354.4,295.2,355.4,293.7,354.9,292.3z M284.7,292.7c-0.2,0.1-0.4,0.1-0.6,0.2c-2.8,0.3-5.5,0.7-8.2,1.3c-1.1,0.3-2.2-0.4-2.5-1.6
			s0.4-2.2,1.6-2.5c2.9-0.7,5.8-1.2,8.7-1.4c1.2-0.1,2.2,0.7,2.3,1.9C286.1,291.5,285.5,292.3,284.7,292.7z M337.7,268.2
			c0,0.1,0.1,0.2,0.1,0.3c0.1,0.9-0.4,1.8-1.2,2.1c-0.2,0.1-0.4,0.1-0.6,0.2c-2.8,0.3-5.5,0.7-8.2,1.3c-1.1,0.3-2.2-0.4-2.5-1.6
			c-0.3-1.1,0.4-2.2,1.6-2.5c1.6-0.4,3.2-0.7,4.8-0.9c1.3-0.2,2.6-0.4,3.9-0.5C336.6,266.6,337.5,267.2,337.7,268.2z M331.3,253.1
			c0.1,0.9-0.4,1.8-1.2,2.1c-0.2,0.1-0.4,0.1-0.6,0.2c-3.3,0.3-6.7,0.9-9.9,1.8c-2.7,0.7-5.4,1.6-8,2.6c-1.1,0.4-2.3-0.1-2.7-1.2
			c-0.4-1.1,0.1-2.3,1.2-2.7c2-0.8,4.2-1.5,6.3-2.2c4.2-1.2,8.4-2.1,12.8-2.5C330.1,251.2,331.2,252,331.3,253.1z M325.7,243.6
			c1.2-0.1,2.2,0.7,2.3,1.9c0.1,0.9-0.4,1.8-1.2,2.1c-0.2,0.1-0.4,0.1-0.6,0.2c-1.4,0.1-2.8,0.3-4.2,0.5c-1.1,0.2-2.2-0.6-2.4-1.7
			c-0.2-1.1,0.6-2.2,1.7-2.4C322.8,243.9,324.3,243.8,325.7,243.6z M295.6,244.4c2.5-1.4,5.2-2.7,7.8-3.7c4.9-2,9.9-3.4,15.1-4.2
			c1.3-0.2,2.6-0.4,3.8-0.5c1.2-0.1,2.2,0.7,2.3,1.9c0.1,0.9-0.4,1.8-1.2,2.1c-0.2,0.1-0.4,0.1-0.6,0.2c-5.6,0.5-11,1.8-16.3,3.8
			c-3,1.2-6,2.5-8.9,4.2c-1,0.6-2.3,0.2-2.8-0.8c-0.1-0.2-0.2-0.4-0.2-0.6C294.5,245.7,294.8,244.8,295.6,244.4z M284.6,254.8
			c-0.7-0.9-0.6-2.2,0.2-2.9c1-0.8,2-1.7,3-2.4c0.2-0.1,0.3-0.3,0.4-0.4c0.4-0.3,0.8-0.4,1.3-0.4c0.6,0,1.2,0.3,1.7,0.8
			c0.7,0.9,0.5,2.2-0.4,2.9c-1.1,0.8-2.2,1.7-3.3,2.6c-0.2,0.1-0.4,0.3-0.5,0.3C286.2,255.8,285.2,255.6,284.6,254.8z M287.9,262.6
			c-0.7-0.9-0.6-2.2,0.2-2.9c6.4-5.5,13.7-9.7,21.7-12.5c1-0.4,2-0.7,3-1c1.1-0.3,2.3,0.3,2.6,1.4c0.3,1.1-0.3,2.3-1.4,2.6
			c-0.3,0.1-0.6,0.2-1,0.3c-8.2,2.6-15.7,6.7-22.2,12.3c-0.2,0.1-0.4,0.3-0.5,0.3C289.5,263.5,288.5,263.3,287.9,262.6z
			 M293.4,270.8c-0.8,0.3-1.7,0.1-2.3-0.6c-0.5-0.6-0.6-1.4-0.3-2.1c0.1-0.3,0.3-0.6,0.6-0.9c3.4-2.8,7-5.4,10.8-7.6
			c1-0.6,2.3-0.2,2.8,0.8c0.6,1,0.2,2.3-0.8,2.8c-3.6,2-7,4.4-10.2,7.1c-0.2,0.1-0.4,0.3-0.5,0.3
			C293.5,270.8,293.4,270.8,293.4,270.8z M294.4,277.9c-0.7-0.9-0.6-2.2,0.2-2.9c0.5-0.4,1-0.9,1.5-1.3c7.8-6.3,16.9-10.8,26.6-13.1
			c3.1-0.8,6.3-1.3,9.5-1.6c1.2-0.1,2.2,0.7,2.3,1.9c0.1,0.9-0.4,1.8-1.2,2.1c-0.2,0.1-0.4,0.1-0.6,0.2c-2.2,0.2-4.4,0.5-6.5,1
			c-9.9,2-19.1,6.3-27.1,12.6c-0.6,0.5-1.2,0.9-1.7,1.4C296.4,278.9,295.1,278.8,294.4,277.9z M297.7,285.6
			c-0.7-0.9-0.6-2.2,0.2-2.9c1.3-1.1,2.6-2.1,3.9-3.1c5.1-3.7,10.7-6.8,16.7-9c1.1-0.4,2.3,0.2,2.7,1.2c0.4,1.1-0.1,2.3-1.2,2.7
			c-5.4,2-10.5,4.7-15.2,8.1c-1.4,1-2.8,2.1-4.2,3.2c-0.2,0.1-0.4,0.3-0.5,0.3C299.3,286.5,298.3,286.3,297.7,285.6z M300.9,293.3
			c-0.7-0.9-0.6-2.2,0.2-2.9c2-1.8,4.2-3.4,6.4-4.8c9.3-6.2,19.9-10.1,31.3-11.1c1.2-0.1,2.2,0.7,2.3,1.9c0.1,0.9-0.4,1.8-1.2,2.1
			c-0.2,0.1-0.4,0.1-0.6,0.2c-10.3,1-20,4.4-28.6,10c-2.3,1.5-4.6,3.2-6.8,5C303,294.2,301.7,294.1,300.9,293.3z M312.1,297.4
			c-1.7,1.2-3.4,2.5-5,3.8c-0.2,0.1-0.4,0.3-0.5,0.3c-0.8,0.4-1.8,0.2-2.4-0.6c-0.7-0.9-0.6-2.2,0.2-2.9c1.7-1.4,3.5-2.8,5.3-4.1
			c0.9-0.7,2.2-0.4,2.9,0.5C313.3,295.4,313,296.7,312.1,297.4z M343.1,286c-0.2,0.1-0.4,0.1-0.6,0.2c-8.2,0.8-16.1,3.1-23.4,6.9
			c-0.7,0.4-1.6,0.3-2.2-0.2c0,0-0.1-0.1-0.1-0.1c-0.2-0.2-0.4-0.4-0.5-0.6c-0.5-1-0.1-2.3,0.9-2.8c7.8-4.1,16.2-6.6,24.9-7.4
			c1.2-0.1,2.2,0.7,2.3,1.9C344.4,284.8,343.9,285.7,343.1,286z"/>
	</g>
	<path fill="#84828F" d="M312.1,297.4c1-0.7,1.2-2,0.5-2.9c-0.7-1-2-1.2-2.9-0.5c-1.8,1.3-3.6,2.6-5.3,4.1c-0.9,0.7-1,2-0.2,2.9
		c0.6,0.7,1.6,0.9,2.4,0.6c0.2-0.1,0.4-0.2,0.5-0.3C308.7,299.8,310.4,298.5,312.1,297.4z"/>
	<path fill="#84828F" d="M316.3,292.2c0.5,1,1.8,1.4,2.8,0.9c7.3-3.8,15.2-6.1,23.4-6.9c0.2,0,0.4-0.1,0.6-0.2
		c0.8-0.4,1.3-1.2,1.2-2.1c-0.1-1.2-1.1-2-2.3-1.9c-8.7,0.9-17.1,3.4-24.9,7.4C316.1,290,315.7,291.2,316.3,292.2z"/>
	<path fill="#84828F" d="M300.9,293.3c0.7,0.9,2,1,2.9,0.2c2.1-1.8,4.4-3.5,6.8-5c-0.7-0.6-1.3-1.2-1.9-1.8l-1.2-1.2
		c-2.2,1.5-4.4,3.1-6.4,4.8C300.3,291.1,300.2,292.4,300.9,293.3z"/>
	<path fill="#84828F" d="M310.6,288.5c8.5-5.5,18.3-9,28.6-10c0.2,0,0.4-0.1,0.6-0.2c0.8-0.4,1.3-1.2,1.2-2.1
		c-0.1-1.2-1.1-2-2.3-1.9c-11.3,1.1-21.9,4.9-31.3,11.1l1.2,1.2C309.3,287.3,310,287.9,310.6,288.5z"/>
	<path fill="#84828F" d="M297.7,285.6c0.6,0.7,1.6,0.9,2.4,0.6c0.2-0.1,0.4-0.2,0.5-0.3c1.3-1.2,2.7-2.2,4.2-3.2l-2.9-3
		c-1.3,1-2.7,2-3.9,3.1C297,283.4,296.9,284.7,297.7,285.6z"/>
	<path fill="#84828F" d="M319.9,274.5c1.1-0.4,1.6-1.6,1.2-2.7s-1.6-1.6-2.7-1.2c-6,2.2-11.6,5.2-16.7,9l2.9,3
		C309.4,279.2,314.5,276.5,319.9,274.5z"/>
	<path fill="#84828F" d="M337.7,268.2c-0.3-1-1.2-1.6-2.2-1.5c-1.3,0.1-2.6,0.3-3.9,0.5c1.6,0.6,3.2,1,4.8,1H337.7L337.7,268.2z"/>
	<path fill="#84828F" d="M325.2,270.6c0.3,1.1,1.4,1.8,2.5,1.6c2.7-0.6,5.5-1.1,8.2-1.3c0.2,0,0.4-0.1,0.6-0.2
		c0.8-0.4,1.3-1.2,1.2-2.1c0-0.1-0.1-0.2-0.1-0.3h-1.3c-1.6,0-3.2-0.4-4.8-1c-1.6,0.3-3.2,0.5-4.8,0.9
		C325.7,268.3,325,269.5,325.2,270.6z"/>
	<path fill="#84828F" d="M332.7,263.1c0.2,0,0.4-0.1,0.6-0.2c0.8-0.4,1.3-1.2,1.2-2.1c-0.1-1.2-1.1-2-2.3-1.9
		c-3.2,0.3-6.4,0.9-9.5,1.6l3.4,3.5C328.3,263.6,330.5,263.3,332.7,263.1z"/>
	<path fill="#84828F" d="M294.4,277.9c0.7,0.9,2,1,2.9,0.2c0.6-0.5,1.2-1,1.7-1.4l-2.9-3c-0.5,0.4-1,0.8-1.5,1.3
		C293.8,275.7,293.7,277,294.4,277.9z"/>
	<path fill="#84828F" d="M299.1,276.7c7.9-6.3,17.2-10.6,27.1-12.6l-3.4-3.5c-9.7,2.3-18.7,6.8-26.6,13.1L299.1,276.7z"/>
	<path fill="#84828F" d="M291.1,270.2c0.6,0.7,1.5,0.9,2.3,0.6l-2.6-2.7C290.5,268.8,290.6,269.6,291.1,270.2z"/>
	<path fill="#84828F" d="M293.5,270.8c0.2-0.1,0.4-0.2,0.5-0.3c3.1-2.7,6.6-5.1,10.2-7.1c1-0.6,1.3-1.8,0.8-2.8
		c-0.6-1-1.8-1.4-2.8-0.8c-3.8,2.1-7.5,4.7-10.8,7.6c-0.3,0.2-0.4,0.5-0.6,0.9l2.6,2.7C293.4,270.8,293.5,270.8,293.5,270.8z"/>
	<path fill="#84828F" d="M329.4,255.4c0.2,0,0.4-0.1,0.6-0.2c0.8-0.4,1.3-1.2,1.2-2.1c-0.1-1.2-1.1-2-2.3-1.9
		c-4.3,0.4-8.6,1.3-12.8,2.5l3.3,3.4C322.8,256.4,326.1,255.8,329.4,255.4z"/>
	<path fill="#84828F" d="M308.8,258.7c0.4,1.1,1.7,1.6,2.7,1.2c2.6-1.1,5.3-1.9,8-2.6l-3.3-3.4c-2.1,0.6-4.2,1.3-6.3,2.2
		C308.9,256.3,308.4,257.6,308.8,258.7z"/>
	<path fill="#84828F" d="M314,250.2c1.1-0.3,1.7-1.5,1.4-2.6s-1.5-1.7-2.6-1.4c-1,0.3-2,0.6-3,1l3.2,3.3
		C313.4,250.4,313.7,250.3,314,250.2z"/>
	<path fill="#84828F" d="M287.9,262.6c0.6,0.7,1.6,0.9,2.4,0.6c0.2-0.1,0.4-0.2,0.5-0.3c6.5-5.6,14-9.7,22.2-12.3l-3.2-3.3
		c-8,2.8-15.2,6.9-21.7,12.5C287.2,260.3,287.1,261.7,287.9,262.6z"/>
	<path fill="#84828F" d="M319.6,246.6c0.2,1.2,1.2,1.9,2.4,1.7c1.4-0.2,2.8-0.4,4.2-0.5c0.2,0,0.4-0.1,0.6-0.2
		c0.8-0.4,1.3-1.2,1.2-2.1c-0.1-1.2-1.1-2-2.3-1.9c-1.5,0.2-3,0.4-4.4,0.6C320.2,244.4,319.4,245.5,319.6,246.6z"/>
	<path fill="#84828F" d="M288.3,249.1c-0.2,0.1-0.3,0.2-0.4,0.4l1.7-0.7C289.1,248.8,288.7,248.8,288.3,249.1z"/>
	<path fill="#84828F" d="M284.6,254.8c0.6,0.7,1.6,0.9,2.4,0.6c0.2-0.1,0.4-0.2,0.5-0.3c1.1-0.9,2.2-1.8,3.3-2.6
		c0.9-0.7,1.1-2,0.4-2.9c-0.4-0.5-1-0.8-1.7-0.8l-1.7,0.7c-1,0.8-2,1.6-3,2.4C284,252.7,283.9,254,284.6,254.8z"/>
	<path fill="#84828F" d="M318.6,236.4c-5.2,0.8-10.3,2.2-15.1,4.2l1.5,1.6L318.6,236.4z"/>
	<path fill="#84828F" d="M303.5,240.6c-2.7,1.1-5.3,2.3-7.8,3.7c-0.8,0.4-1.2,1.4-1,2.2l10.3-4.4L303.5,240.6z"/>
	<path fill="#84828F" d="M306.6,243.9c5.2-2,10.7-3.2,16.3-3.8c0.2,0,0.4-0.1,0.6-0.2c0.8-0.4,1.3-1.2,1.2-2.1
		c-0.1-1.2-1.1-2-2.3-1.9c-1.3,0.1-2.6,0.3-3.8,0.5l-13.6,5.8L306.6,243.9z"/>
	<path fill="#84828F" d="M297.7,248c2.9-1.6,5.9-3,8.9-4.2l-1.6-1.7l-10.3,4.4c0,0.2,0.1,0.4,0.2,0.6
		C295.4,248.2,296.7,248.6,297.7,248z"/>
	<path fill="#2A3982" d="M399.5,209.7h-41.5l58.4,58.4h-62.7l13.1,30.8h51.2l-30.8,29.2h-75.3c-0.1,0-0.2,0-0.3,0
		c-0.2,0-0.5,0-0.7,0c-2.8-0.3-5.5-1.6-8.3-3l-1.7-1.9l-1.5-1.6l-3.8-4.1l-4.3-4.6l-4.1-4.4l-3.4-3.7l-3.2-3.5l-3.3-3.5l-9.5-10.2
		l-3.1-3.3l-3.1-3.3l-0.6-0.6c-0.9-0.9-1.8-1.7-2.8-2.5c-1.2-1-2.5-2-3.8-2.8c-1.4-0.9-2.9-1.8-4.4-2.5c-2.8-1.4-5.8-2.5-8.8-3.2
		c-3.1-0.7-6.2-1.2-9.3-1.2H225h-11.9h-61.3L181,239h75.4c3.1,0,6.1,1.5,9.2,3.1l2,2.1l2.8,2.9c0.9,0,1.7,0,2.6,0
		c0.8,0,1.4,0.4,1.8,1.1h0c5.9-6.6,13-11.9,20.9-15.6l-0.3-0.3l-11.4-11.8c-7.7-7.7-18.4-12.3-29.2-12.3h-86.1l-73.8,75.4l73.8,73.8
		h41.5L151.8,299h74.3h5.7c1.2,0,2.5,0.3,3.7,0.7c1.8,0.6,3.7,1.5,5.5,2.4l4.4,4.5l1.7,1.8l3.2,3.3l2.9,3l2.7,2.8l2.9,3l3.4,3.5
		l3.7,3.9l7,7.3l6.2,6.4l0.2,0.3l3.2,3.3c7.7,7.7,18.4,12.3,29.2,12.3h87.7l73.8-73.8L399.5,209.7z"/>
	<g>
		<path fill="#84828F" d="M290.2,304.1c-2.2,0.2-4.3,0.5-6.4,0.9l3.4,3.7c1.1-0.2,2.3-0.3,3.4-0.4c0.2,0,0.4-0.1,0.6-0.2
			c0.8-0.4,1.3-1.2,1.2-2.1C292.4,304.8,291.4,304,290.2,304.1z"/>
		<path fill="#84828F" d="M288,300.3c0.8-0.4,1.3-1.2,1.2-2.1c-0.1-1.2-1.1-2-2.3-1.9c-3.3,0.3-6.5,0.9-9.6,1.7l3.3,3.5
			c2.2-0.4,4.5-0.8,6.8-1C287.6,300.5,287.8,300.4,288,300.3z"/>
		<path fill="#84828F" d="M284.7,292.7c0.8-0.4,1.3-1.2,1.2-2.1c-0.1-1.2-1.1-2-2.3-1.9c-2.9,0.3-5.9,0.8-8.7,1.4
			c-1.1,0.3-1.8,1.4-1.6,2.5s1.4,1.8,2.5,1.6c2.7-0.6,5.5-1.1,8.2-1.3C284.3,292.8,284.5,292.8,284.7,292.7z"/>
		<path fill="#84828F" d="M278.4,283.3c0-0.3-0.1-0.5-0.3-0.7l-0.3,0.4c-0.4,0.7-1.5,0.6-1.8-0.2l-0.5-1.2
			c-3.7,0.6-7.3,1.6-10.8,2.8l3.1,3.3c2.9-0.9,5.8-1.6,8.8-2.1C277.8,285.5,278.6,284.4,278.4,283.3z"/>
		<path fill="#84828F" d="M273.9,277.9l-1.7-3.9c-4.8,0.8-9.5,2.1-14,4c1,0.8,1.9,1.7,2.8,2.5l0.6,0.6c3.8-1.4,7.8-2.5,11.8-3.1
			C273.6,278,273.7,277.9,273.9,277.9z"/>
		<path fill="#84828F" d="M263.6,269.6c-0.3-1.1-1.5-1.7-2.6-1.4c-3.8,1.2-7.5,2.6-11,4.4c1.5,0.8,3,1.6,4.4,2.5
			c2.5-1.1,5.1-2.1,7.8-2.9C263.3,271.9,263.9,270.7,263.6,269.6z"/>
		<path fill="#84828F" d="M267.3,262.5l-1.5-3.7l-0.1-0.2c-7.7,1.3-15.1,3.9-21.9,7.8c-0.8,0.4-1.2,1.4-1,2.2c0,0.2,0.1,0.4,0.2,0.6
			c0.6,1,1.9,1.4,2.8,0.8c6.5-3.7,13.6-6.1,21-7.4C267,262.6,267.2,262.6,267.3,262.5z"/>
	</g>
	<polygon fill="#E7B324" points="277.3,254 277.2,254 277.5,254.3 	"/>
	<rect x="276.1" y="248.1" fill="#E7B324" width="0" height="6.1"/>
	<rect x="282.5" y="253.3" fill="#E7B324" width="0" height="25.7"/>
	<polygon fill="#E7B324" points="277.3,253.9 277.5,254.3 277.5,254.3 	"/>
	<path fill="#E7B324" d="M266.5,258.5c-0.1,0-0.2,0-0.4,0c-0.2,0-0.3,0.1-0.5,0.1l0.1,0.2L266.5,258.5z"/>
	<path fill="#E7B324" d="M287.5,278l-10.1-23.6l-0.3-0.3l0.1-0.1l-2.4-5.6c0-0.1-0.1-0.1-0.1-0.2c-0.4-0.7-1-1.1-1.8-1.1
		c-0.9,0-1.7,0-2.6,0c-2.7,0.1-5.3,0.3-8,0.7c-0.6,0.1-1,0.7-0.8,1.3c0,0.1,0,0.1,0,0.2l4,9.4c0.2,0,0.3-0.1,0.5-0.1
		c0.1,0,0.2,0,0.4,0l-0.7,0.3l1.5,3.7l4.9,11.5l1.7,3.9l1.6,3.8l0.5,1.2c0.3,0.8,1.4,0.9,1.8,0.2l0.3-0.4l2.8-4.2l5.5,1
		C287.2,279.6,287.8,278.7,287.5,278z"/>
</g>
</svg>
